<?xml version="1.0" encoding="UTF-8" standalone="no"?>
<!-- Created with Inkscape (http://www.inkscape.org/) -->

<svg
   xmlns:dc="http://purl.org/dc/elements/1.1/"
   xmlns:cc="http://creativecommons.org/ns#"
   xmlns:rdf="http://www.w3.org/1999/02/22-rdf-syntax-ns#"
   xmlns:svg="http://www.w3.org/2000/svg"
   xmlns="http://www.w3.org/2000/svg"
   xmlns:xlink="http://www.w3.org/1999/xlink"
   xmlns:sodipodi="http://sodipodi.sourceforge.net/DTD/sodipodi-0.dtd"
   xmlns:inkscape="http://www.inkscape.org/namespaces/inkscape"
   width="256"
   height="256"
   viewBox="0 0 256 256"
   id="svg2"
   version="1.1"
   inkscape:version="0.92.2 5c3e80d, 2017-08-06"
   sodipodi:docname="prism5.svg"
   inkscape:export-filename="./prism5.png"
   inkscape:export-xdpi="96"
   inkscape:export-ydpi="96">
  <defs
     id="defs4" />
  <sodipodi:namedview
     id="base"
     pagecolor="#ffffff"
     bordercolor="#666666"
     borderopacity="1.0"
     inkscape:pageopacity="0"
     inkscape:pageshadow="2"
     inkscape:zoom="1.28"
     inkscape:cx="121.06696"
     inkscape:cy="83.289599"
     inkscape:document-units="px"
     inkscape:current-layer="layer1"
     showgrid="true"
     units="px"
     showguides="true"
     inkscape:guide-bbox="true"
     inkscape:window-width="1680"
     inkscape:window-height="1005"
     inkscape:window-x="0"
     inkscape:window-y="1"
     inkscape:window-maximized="1"
     inkscape:snap-bbox="true"
     inkscape:bbox-nodes="true">
    <inkscape:grid
       type="xygrid"
       id="grid4136" />
    <sodipodi:guide
       position="20,207"
       orientation="0,1"
       id="guide4138"
       inkscape:label=""
       inkscape:color="rgb(0,0,255)"
       inkscape:locked="false" />
    <sodipodi:guide
       position="20,207"
       orientation="1,0"
       id="guide4140"
       inkscape:label=""
       inkscape:color="rgb(0,0,255)"
       inkscape:locked="false" />
    <sodipodi:guide
       position="236,49"
       orientation="1,0"
       id="guide4142"
       inkscape:label=""
       inkscape:color="rgb(0,0,255)"
       inkscape:locked="false" />
    <sodipodi:guide
       position="236,49"
       orientation="0,1"
       id="guide4144"
       inkscape:label=""
       inkscape:color="rgb(0,0,255)"
       inkscape:locked="false" />
  </sodipodi:namedview>
  <metadata
     id="metadata7">
    <rdf:RDF>
      <cc:Work
         rdf:about="">
        <dc:format>image/svg+xml</dc:format>
        <dc:type
           rdf:resource="http://purl.org/dc/dcmitype/StillImage" />
        <dc:title />
      </cc:Work>
    </rdf:RDF>
  </metadata>
  <g
     inkscape:groupmode="layer"
     id="layer2"
     inkscape:label="Background"
     sodipodi:insensitive="true">
    <rect
       transform="translate(0,-796.36216)"
       style="opacity:1;fill:#000000;fill-opacity:1;stroke:none;stroke-width:13;stroke-linecap:round;stroke-linejoin:round;stroke-miterlimit:4;stroke-dasharray:none"
       id="rect4165"
       width="256"
       height="256"
       x="0"
       y="796.36218" />
  </g>
  <g
     inkscape:groupmode="layer"
     id="layer3"
     inkscape:label="UV"
     sodipodi:insensitive="true"
     style="display:none">
    <image
       sodipodi:absref="/Users/ice/Documents/projects/RealityGames/RubiksSnakeAR/raw/prismuv.png"
       xlink:href="prismuv.png"
       width="256"
       height="256"
       preserveAspectRatio="none"
       id="image884"
       x="0"
       y="796.36218"
       transform="translate(0,-796.36216)" />
  </g>
  <g
     inkscape:label="Foreground"
     inkscape:groupmode="layer"
     id="layer1"
     transform="translate(0,-796.36216)">
    <path
       sodipodi:type="inkscape:offset"
       inkscape:radius="4"
       inkscape:original="M 58 861.36133 C 45.258001 861.36133 35 871.61933 35 884.36133 C 35 897.10333 45.258001 907.36133 58 907.36133 L 198 907.36133 C 210.742 907.36133 221 897.10333 221 884.36133 C 221 871.61933 210.742 861.36133 198 861.36133 L 58 861.36133 z "
       style="display:inline;opacity:1;fill:#1a1a1a;fill-opacity:1;stroke:none;stroke-width:10;stroke-linecap:round;stroke-linejoin:round;stroke-miterlimit:4;stroke-dasharray:none;stroke-opacity:1"
       id="path4231"
       d="m 58,857.36133 c -14.88881,0 -27,12.11119 -27,27 0,14.88881 12.11119,27 27,27 h 140 c 14.88881,0 27,-12.11119 27,-27 0,-14.88881 -12.11119,-27 -27,-27 z"
       transform="translate(0,80.00083)" />
    <path
       d="m 58,858.36133 c -14.352107,0 -26,11.64789 -26,26 0,14.35211 11.647893,26 26,26 h 140 c 14.35211,0 26,-11.64789 26,-26 0,-14.35211 -11.64789,-26 -26,-26 z"
       id="path4233"
       style="display:inline;opacity:1;fill:#333333;fill-opacity:1;stroke:none;stroke-width:10;stroke-linecap:round;stroke-linejoin:round;stroke-miterlimit:4;stroke-dasharray:none;stroke-opacity:1"
       inkscape:original="M 58 861.36133 C 45.258001 861.36133 35 871.61933 35 884.36133 C 35 897.10333 45.258001 907.36133 58 907.36133 L 198 907.36133 C 210.742 907.36133 221 897.10333 221 884.36133 C 221 871.61933 210.742 861.36133 198 861.36133 L 58 861.36133 z "
       inkscape:radius="3"
       sodipodi:type="inkscape:offset"
       transform="translate(0,80.00083)" />
    <path
       sodipodi:type="inkscape:offset"
       inkscape:radius="2"
       inkscape:original="M 58 861.36133 C 45.258001 861.36133 35 871.61933 35 884.36133 C 35 897.10333 45.258001 907.36133 58 907.36133 L 198 907.36133 C 210.742 907.36133 221 897.10333 221 884.36133 C 221 871.61933 210.742 861.36133 198 861.36133 L 58 861.36133 z "
       style="display:inline;opacity:1;fill:#4d4d4d;fill-opacity:1;stroke:none;stroke-width:10;stroke-linecap:round;stroke-linejoin:round;stroke-miterlimit:4;stroke-dasharray:none;stroke-opacity:1"
       id="path4235"
       d="m 58,859.36133 c -13.815405,0 -25,11.18459 -25,25 0,13.8154 11.184595,25 25,25 h 140 c 13.81541,0 25,-11.1846 25,-25 0,-13.81541 -11.18459,-25 -25,-25 z"
       transform="translate(0,80.00083)" />
    <path
       d="m 58,860.36133 c -13.278702,0 -24,10.7213 -24,24 0,13.2787 10.721298,24 24,24 h 140 c 13.2787,0 24,-10.7213 24,-24 0,-13.2787 -10.7213,-24 -24,-24 z"
       id="path4237"
       style="display:inline;opacity:1;fill:#666666;fill-opacity:1;stroke:none;stroke-width:10;stroke-linecap:round;stroke-linejoin:round;stroke-miterlimit:4;stroke-dasharray:none;stroke-opacity:1"
       inkscape:original="M 58 861.36133 C 45.258001 861.36133 35 871.61933 35 884.36133 C 35 897.10333 45.258001 907.36133 58 907.36133 L 198 907.36133 C 210.742 907.36133 221 897.10333 221 884.36133 C 221 871.61933 210.742 861.36133 198 861.36133 L 58 861.36133 z "
       inkscape:radius="1"
       sodipodi:type="inkscape:offset"
       transform="translate(0,80.00083)" />
    <rect
       ry="22.999998"
       y="941.36304"
       x="35"
       height="45.999996"
       width="186"
       id="rect4239"
       style="display:inline;opacity:1;fill:#808080;fill-opacity:1;stroke:none;stroke-width:10;stroke-linecap:round;stroke-linejoin:round;stroke-miterlimit:4;stroke-dasharray:none;stroke-opacity:1" />
    <path
       sodipodi:type="inkscape:offset"
       inkscape:radius="-1"
       inkscape:original="M 58 861.36133 C 45.258001 861.36133 35 871.61933 35 884.36133 C 35 897.10333 45.258001 907.36133 58 907.36133 L 198 907.36133 C 210.742 907.36133 221 897.10333 221 884.36133 C 221 871.61933 210.742 861.36133 198 861.36133 L 58 861.36133 z "
       style="display:inline;opacity:1;fill:#999999;fill-opacity:1;stroke:none;stroke-width:10;stroke-linecap:round;stroke-linejoin:round;stroke-miterlimit:4;stroke-dasharray:none;stroke-opacity:1"
       id="path4241"
       d="m 58,862.36133 c -12.205296,0 -22,9.7947 -22,22 0,12.2053 9.794704,22 22,22 h 140 c 12.2053,0 22,-9.7947 22,-22 0,-12.2053 -9.7947,-22 -22,-22 z"
       transform="translate(0,80.00083)" />
    <path
       d="m 58,863.36133 c -11.668593,0 -21,9.3314 -21,21 0,11.66859 9.331407,21 21,21 h 140 c 11.66859,0 21,-9.33141 21,-21 0,-11.6686 -9.33141,-21 -21,-21 z"
       id="path4243"
       style="display:inline;opacity:1;fill:#b3b3b3;fill-opacity:1;stroke:none;stroke-width:10;stroke-linecap:round;stroke-linejoin:round;stroke-miterlimit:4;stroke-dasharray:none;stroke-opacity:1"
       inkscape:original="M 58 861.36133 C 45.258001 861.36133 35 871.61933 35 884.36133 C 35 897.10333 45.258001 907.36133 58 907.36133 L 198 907.36133 C 210.742 907.36133 221 897.10333 221 884.36133 C 221 871.61933 210.742 861.36133 198 861.36133 L 58 861.36133 z "
       inkscape:radius="-2"
       sodipodi:type="inkscape:offset"
       transform="translate(0,80.00083)" />
    <path
       sodipodi:type="inkscape:offset"
       inkscape:radius="-3"
       inkscape:original="M 58 861.36133 C 45.258001 861.36133 35 871.61933 35 884.36133 C 35 897.10333 45.258001 907.36133 58 907.36133 L 198 907.36133 C 210.742 907.36133 221 897.10333 221 884.36133 C 221 871.61933 210.742 861.36133 198 861.36133 L 58 861.36133 z "
       style="display:inline;opacity:1;fill:#cccccc;fill-opacity:1;stroke:none;stroke-width:10;stroke-linecap:round;stroke-linejoin:round;stroke-miterlimit:4;stroke-dasharray:none;stroke-opacity:1"
       id="path4245"
       d="m 58,864.36133 c -11.131891,0 -20,8.86811 -20,20 0,11.13189 8.868109,20 20,20 h 140 c 11.13189,0 20,-8.86811 20,-20 0,-11.13189 -8.86811,-20 -20,-20 z"
       transform="translate(0,80.00083)" />
    <path
       d="m 58,865.36133 c -10.595188,0 -19,8.40481 -19,19 0,10.59519 8.404812,19 19,19 h 140 c 10.59519,0 19,-8.40481 19,-19 0,-10.59519 -8.40481,-19 -19,-19 z"
       id="path4247"
       style="display:inline;opacity:1;fill:#e6e6e6;fill-opacity:1;stroke:none;stroke-width:10;stroke-linecap:round;stroke-linejoin:round;stroke-miterlimit:4;stroke-dasharray:none;stroke-opacity:1"
       inkscape:original="M 58 861.36133 C 45.258001 861.36133 35 871.61933 35 884.36133 C 35 897.10333 45.258001 907.36133 58 907.36133 L 198 907.36133 C 210.742 907.36133 221 897.10333 221 884.36133 C 221 871.61933 210.742 861.36133 198 861.36133 L 58 861.36133 z "
       inkscape:radius="-4"
       sodipodi:type="inkscape:offset"
       transform="translate(0,80.00083)" />
    <path
       sodipodi:type="inkscape:offset"
       inkscape:radius="-5"
       inkscape:original="M 58 861.36133 C 45.258001 861.36133 35 871.61933 35 884.36133 C 35 897.10333 45.258001 907.36133 58 907.36133 L 198 907.36133 C 210.742 907.36133 221 897.10333 221 884.36133 C 221 871.61933 210.742 861.36133 198 861.36133 L 58 861.36133 z "
       style="display:inline;opacity:1;fill:#ffffff;fill-opacity:1;stroke:none;stroke-width:10;stroke-linecap:round;stroke-linejoin:round;stroke-miterlimit:4;stroke-dasharray:none;stroke-opacity:1"
       id="path4249"
       d="m 58,866.36133 c -10.058485,0 -18,7.94151 -18,18 0,10.05848 7.941515,18 18,18 h 140 c 10.05849,0 18,-7.94152 18,-18 0,-10.05849 -7.94151,-18 -18,-18 z"
       transform="translate(0,80.00083)" />
    <path
       transform="translate(0,8.3e-4)"
       d="m 58,857.36133 c -14.88881,0 -27,12.11119 -27,27 0,14.88881 12.11119,27 27,27 h 140 c 14.88881,0 27,-12.11119 27,-27 0,-14.88881 -12.11119,-27 -27,-27 z"
       id="path4219"
       style="display:inline;opacity:1;fill:#1a1a1a;fill-opacity:1;stroke:none;stroke-width:10;stroke-linecap:round;stroke-linejoin:round;stroke-miterlimit:4;stroke-dasharray:none;stroke-opacity:1"
       inkscape:original="M 58 861.36133 C 45.258001 861.36133 35 871.61933 35 884.36133 C 35 897.10333 45.258001 907.36133 58 907.36133 L 198 907.36133 C 210.742 907.36133 221 897.10333 221 884.36133 C 221 871.61933 210.742 861.36133 198 861.36133 L 58 861.36133 z "
       inkscape:radius="4"
       sodipodi:type="inkscape:offset" />
    <path
       transform="translate(0,8.3e-4)"
       sodipodi:type="inkscape:offset"
       inkscape:radius="3"
       inkscape:original="M 58 861.36133 C 45.258001 861.36133 35 871.61933 35 884.36133 C 35 897.10333 45.258001 907.36133 58 907.36133 L 198 907.36133 C 210.742 907.36133 221 897.10333 221 884.36133 C 221 871.61933 210.742 861.36133 198 861.36133 L 58 861.36133 z "
       style="display:inline;opacity:1;fill:#333333;fill-opacity:1;stroke:none;stroke-width:10;stroke-linecap:round;stroke-linejoin:round;stroke-miterlimit:4;stroke-dasharray:none;stroke-opacity:1"
       id="path4217"
       d="m 58,858.36133 c -14.352107,0 -26,11.64789 -26,26 0,14.35211 11.647893,26 26,26 h 140 c 14.35211,0 26,-11.64789 26,-26 0,-14.35211 -11.64789,-26 -26,-26 z" />
    <path
       transform="translate(0,8.3e-4)"
       d="m 58,859.36133 c -13.815405,0 -25,11.18459 -25,25 0,13.8154 11.184595,25 25,25 h 140 c 13.81541,0 25,-11.1846 25,-25 0,-13.81541 -11.18459,-25 -25,-25 z"
       id="path4215"
       style="display:inline;opacity:1;fill:#4d4d4d;fill-opacity:1;stroke:none;stroke-width:10;stroke-linecap:round;stroke-linejoin:round;stroke-miterlimit:4;stroke-dasharray:none;stroke-opacity:1"
       inkscape:original="M 58 861.36133 C 45.258001 861.36133 35 871.61933 35 884.36133 C 35 897.10333 45.258001 907.36133 58 907.36133 L 198 907.36133 C 210.742 907.36133 221 897.10333 221 884.36133 C 221 871.61933 210.742 861.36133 198 861.36133 L 58 861.36133 z "
       inkscape:radius="2"
       sodipodi:type="inkscape:offset" />
    <path
       transform="translate(0,8.3e-4)"
       sodipodi:type="inkscape:offset"
       inkscape:radius="1"
       inkscape:original="M 58 861.36133 C 45.258001 861.36133 35 871.61933 35 884.36133 C 35 897.10333 45.258001 907.36133 58 907.36133 L 198 907.36133 C 210.742 907.36133 221 897.10333 221 884.36133 C 221 871.61933 210.742 861.36133 198 861.36133 L 58 861.36133 z "
       style="display:inline;opacity:1;fill:#666666;fill-opacity:1;stroke:none;stroke-width:10;stroke-linecap:round;stroke-linejoin:round;stroke-miterlimit:4;stroke-dasharray:none;stroke-opacity:1"
       id="path4213"
       d="m 58,860.36133 c -13.278702,0 -24,10.7213 -24,24 0,13.2787 10.721298,24 24,24 h 140 c 13.2787,0 24,-10.7213 24,-24 0,-13.2787 -10.7213,-24 -24,-24 z" />
    <rect
       style="display:inline;opacity:1;fill:#808080;fill-opacity:1;stroke:none;stroke-width:10;stroke-linecap:round;stroke-linejoin:round;stroke-miterlimit:4;stroke-dasharray:none;stroke-opacity:1"
       id="rect4203"
       width="186"
       height="45.999996"
       x="35"
       y="861.36304"
       ry="22.999998" />
    <path
       transform="translate(0,8.3e-4)"
       d="m 58,862.36133 c -12.205296,0 -22,9.7947 -22,22 0,12.2053 9.794704,22 22,22 h 140 c 12.2053,0 22,-9.7947 22,-22 0,-12.2053 -9.7947,-22 -22,-22 z"
       id="path4221"
       style="display:inline;opacity:1;fill:#999999;fill-opacity:1;stroke:none;stroke-width:10;stroke-linecap:round;stroke-linejoin:round;stroke-miterlimit:4;stroke-dasharray:none;stroke-opacity:1"
       inkscape:original="M 58 861.36133 C 45.258001 861.36133 35 871.61933 35 884.36133 C 35 897.10333 45.258001 907.36133 58 907.36133 L 198 907.36133 C 210.742 907.36133 221 897.10333 221 884.36133 C 221 871.61933 210.742 861.36133 198 861.36133 L 58 861.36133 z "
       inkscape:radius="-1"
       sodipodi:type="inkscape:offset" />
    <path
       transform="translate(0,8.3e-4)"
       sodipodi:type="inkscape:offset"
       inkscape:radius="-2"
       inkscape:original="M 58 861.36133 C 45.258001 861.36133 35 871.61933 35 884.36133 C 35 897.10333 45.258001 907.36133 58 907.36133 L 198 907.36133 C 210.742 907.36133 221 897.10333 221 884.36133 C 221 871.61933 210.742 861.36133 198 861.36133 L 58 861.36133 z "
       style="display:inline;opacity:1;fill:#b3b3b3;fill-opacity:1;stroke:none;stroke-width:10;stroke-linecap:round;stroke-linejoin:round;stroke-miterlimit:4;stroke-dasharray:none;stroke-opacity:1"
       id="path4223"
       d="m 58,863.36133 c -11.668593,0 -21,9.3314 -21,21 0,11.66859 9.331407,21 21,21 h 140 c 11.66859,0 21,-9.33141 21,-21 0,-11.6686 -9.33141,-21 -21,-21 z" />
    <path
       transform="translate(0,8.3e-4)"
       d="m 58,864.36133 c -11.131891,0 -20,8.86811 -20,20 0,11.13189 8.868109,20 20,20 h 140 c 11.13189,0 20,-8.86811 20,-20 0,-11.13189 -8.86811,-20 -20,-20 z"
       id="path4225"
       style="display:inline;opacity:1;fill:#cccccc;fill-opacity:1;stroke:none;stroke-width:10;stroke-linecap:round;stroke-linejoin:round;stroke-miterlimit:4;stroke-dasharray:none;stroke-opacity:1"
       inkscape:original="M 58 861.36133 C 45.258001 861.36133 35 871.61933 35 884.36133 C 35 897.10333 45.258001 907.36133 58 907.36133 L 198 907.36133 C 210.742 907.36133 221 897.10333 221 884.36133 C 221 871.61933 210.742 861.36133 198 861.36133 L 58 861.36133 z "
       inkscape:radius="-3"
       sodipodi:type="inkscape:offset" />
    <path
       transform="translate(0,8.3e-4)"
       sodipodi:type="inkscape:offset"
       inkscape:radius="-4"
       inkscape:original="M 58 861.36133 C 45.258001 861.36133 35 871.61933 35 884.36133 C 35 897.10333 45.258001 907.36133 58 907.36133 L 198 907.36133 C 210.742 907.36133 221 897.10333 221 884.36133 C 221 871.61933 210.742 861.36133 198 861.36133 L 58 861.36133 z "
       style="display:inline;opacity:1;fill:#e6e6e6;fill-opacity:1;stroke:none;stroke-width:10;stroke-linecap:round;stroke-linejoin:round;stroke-miterlimit:4;stroke-dasharray:none;stroke-opacity:1"
       id="path4227"
       d="m 58,865.36133 c -10.595188,0 -19,8.40481 -19,19 0,10.59519 8.404812,19 19,19 h 140 c 10.59519,0 19,-8.40481 19,-19 0,-10.59519 -8.40481,-19 -19,-19 z" />
    <path
       transform="translate(0,8.3e-4)"
       d="m 58,866.36133 c -10.058485,0 -18,7.94151 -18,18 0,10.05848 7.941515,18 18,18 h 140 c 10.05849,0 18,-7.94152 18,-18 0,-10.05849 -7.94151,-18 -18,-18 z"
       id="path4229"
       style="display:inline;opacity:1;fill:#ffffff;fill-opacity:1;stroke:none;stroke-width:10;stroke-linecap:round;stroke-linejoin:round;stroke-miterlimit:4;stroke-dasharray:none;stroke-opacity:1"
       inkscape:original="M 58 861.36133 C 45.258001 861.36133 35 871.61933 35 884.36133 C 35 897.10333 45.258001 907.36133 58 907.36133 L 198 907.36133 C 210.742 907.36133 221 897.10333 221 884.36133 C 221 871.61933 210.742 861.36133 198 861.36133 L 58 861.36133 z "
       inkscape:radius="-5"
       sodipodi:type="inkscape:offset" />
  </g>
</svg>
