<?xml version="1.0" encoding="UTF-8" standalone="no"?>
<!-- Created with Inkscape (http://www.inkscape.org/) -->

<svg
   xmlns:dc="http://purl.org/dc/elements/1.1/"
   xmlns:cc="http://creativecommons.org/ns#"
   xmlns:rdf="http://www.w3.org/1999/02/22-rdf-syntax-ns#"
   xmlns:svg="http://www.w3.org/2000/svg"
   xmlns="http://www.w3.org/2000/svg"
   xmlns:xlink="http://www.w3.org/1999/xlink"
   xmlns:sodipodi="http://sodipodi.sourceforge.net/DTD/sodipodi-0.dtd"
   xmlns:inkscape="http://www.inkscape.org/namespaces/inkscape"
   width="256"
   height="256"
   viewBox="0 0 256 256"
   id="svg2"
   version="1.1"
   inkscape:version="0.92.2 5c3e80d, 2017-08-06"
   sodipodi:docname="prism0.svg"
   inkscape:export-filename="./prism0.png"
   inkscape:export-xdpi="96"
   inkscape:export-ydpi="96">
  <defs
     id="defs4" />
  <sodipodi:namedview
     id="base"
     pagecolor="#ffffff"
     bordercolor="#666666"
     borderopacity="1.0"
     inkscape:pageopacity="0"
     inkscape:pageshadow="2"
     inkscape:zoom="1.8101934"
     inkscape:cx="102.35107"
     inkscape:cy="84.938532"
     inkscape:document-units="px"
     inkscape:current-layer="layer1"
     showgrid="true"
     units="px"
     showguides="true"
     inkscape:guide-bbox="true"
     inkscape:window-width="1680"
     inkscape:window-height="1005"
     inkscape:window-x="0"
     inkscape:window-y="1"
     inkscape:window-maximized="1"
     inkscape:snap-bbox="true"
     inkscape:bbox-nodes="true">
    <inkscape:grid
       type="xygrid"
       id="grid4136" />
    <sodipodi:guide
       position="20,207"
       orientation="0,1"
       id="guide4138"
       inkscape:label=""
       inkscape:color="rgb(0,0,255)"
       inkscape:locked="false" />
    <sodipodi:guide
       position="20,207"
       orientation="1,0"
       id="guide4140"
       inkscape:label=""
       inkscape:color="rgb(0,0,255)"
       inkscape:locked="false" />
    <sodipodi:guide
       position="236,49"
       orientation="1,0"
       id="guide4142"
       inkscape:label=""
       inkscape:color="rgb(0,0,255)"
       inkscape:locked="false" />
    <sodipodi:guide
       position="236,49"
       orientation="0,1"
       id="guide4144"
       inkscape:label=""
       inkscape:color="rgb(0,0,255)"
       inkscape:locked="false" />
  </sodipodi:namedview>
  <metadata
     id="metadata7">
    <rdf:RDF>
      <cc:Work
         rdf:about="">
        <dc:format>image/svg+xml</dc:format>
        <dc:type
           rdf:resource="http://purl.org/dc/dcmitype/StillImage" />
        <dc:title></dc:title>
      </cc:Work>
    </rdf:RDF>
  </metadata>
  <g
     inkscape:groupmode="layer"
     id="layer2"
     inkscape:label="Background"
     sodipodi:insensitive="true">
    <rect
       transform="translate(0,-796.36216)"
       style="opacity:1;fill:#000000;fill-opacity:1;stroke:none;stroke-width:13;stroke-linecap:round;stroke-linejoin:round;stroke-miterlimit:4;stroke-dasharray:none"
       id="rect4165"
       width="256"
       height="256"
       x="0"
       y="796.36218" />
  </g>
  <g
     inkscape:groupmode="layer"
     id="layer3"
     inkscape:label="UV"
     sodipodi:insensitive="true"
     style="display:none">
    <image
       sodipodi:absref="/Users/ice/Documents/projects/RealityGames/RubiksSnakeAR/raw/prismuv.png"
       xlink:href="prismuv.png"
       width="256"
       height="256"
       preserveAspectRatio="none"
       id="image884"
       x="0"
       y="796.36218"
       transform="translate(0,-796.36216)" />
  </g>
  <g
     inkscape:label="Foreground"
     inkscape:groupmode="layer"
     id="layer1"
     transform="translate(0,-796.36216)">
    <path
       sodipodi:type="inkscape:offset"
       inkscape:radius="4"
       inkscape:original="M 43 858.36133 C 37.46 858.36133 33 862.82133 33 868.36133 L 33 980.36133 C 33 985.90133 37.46 990.36133 43 990.36133 L 213 990.36133 C 218.54 990.36133 223 985.90133 223 980.36133 L 223 868.36133 C 223 862.82133 218.54 858.36133 213 858.36133 L 43 858.36133 z "
       style="opacity:1;fill:#1a1a1a;fill-opacity:1;stroke:none;stroke-width:13;stroke-linecap:round;stroke-linejoin:round;stroke-miterlimit:4;stroke-dasharray:none"
       id="path4626"
       d="m 43,855.36133 c -7.150108,0 -13,5.84989 -13,13 v 112 c 0,7.15011 5.849892,13 13,13 h 170 c 7.15011,0 13,-5.84989 13,-13 v -112 c 0,-7.15011 -5.84989,-13 -13,-13 z" />
    <path
       d="m 43,826.36133 c -22.714489,0 -42,19.28551 -42,42 v 112 c 0,22.71447 19.285511,41.99997 42,41.99997 h 170 c 22.71449,0 42,-19.2855 42,-41.99997 v -112 c 0,-22.71449 -19.28551,-42 -42,-42 z"
       id="path4624"
       style="opacity:1;fill:#333333;fill-opacity:1;stroke:none;stroke-width:13;stroke-linecap:round;stroke-linejoin:round;stroke-miterlimit:4;stroke-dasharray:none"
       inkscape:original="M 43 858.36133 C 37.46 858.36133 33 862.82133 33 868.36133 L 33 980.36133 C 33 985.90133 37.46 990.36133 43 990.36133 L 213 990.36133 C 218.54 990.36133 223 985.90133 223 980.36133 L 223 868.36133 C 223 862.82133 218.54 858.36133 213 858.36133 L 43 858.36133 z "
       inkscape:radius="3"
       sodipodi:type="inkscape:offset" />
    <path
       sodipodi:type="inkscape:offset"
       inkscape:radius="2"
       inkscape:original="M 43 858.36133 C 37.46 858.36133 33 862.82133 33 868.36133 L 33 980.36133 C 33 985.90133 37.46 990.36133 43 990.36133 L 213 990.36133 C 218.54 990.36133 223 985.90133 223 980.36133 L 223 868.36133 C 223 862.82133 218.54 858.36133 213 858.36133 L 43 858.36133 z "
       style="opacity:1;fill:#4d4d4d;fill-opacity:1;stroke:none;stroke-width:13;stroke-linecap:round;stroke-linejoin:round;stroke-miterlimit:4;stroke-dasharray:none"
       id="path4622"
       d="m 43,857.36133 c -6.076703,0 -11,4.9233 -11,11 v 112 c 0,6.0767 4.923297,11 11,11 h 170 c 6.0767,0 11,-4.9233 11,-11 v -112 c 0,-6.0767 -4.9233,-11 -11,-11 z" />
    <path
       d="m 43,859.36133 c -5.003297,0 -9,3.9967 -9,9 v 112 c 0,5.0033 3.996703,9 9,9 h 170 c 5.0033,0 9,-3.9967 9,-9 v -112 c 0,-5.0033 -3.9967,-9 -9,-9 z"
       id="path4620"
       style="opacity:1;fill:#666666;fill-opacity:1;stroke:none;stroke-width:13;stroke-linecap:round;stroke-linejoin:round;stroke-miterlimit:4;stroke-dasharray:none"
       inkscape:original="M 43 858.36133 C 37.46 858.36133 33 862.82133 33 868.36133 L 33 980.36133 C 33 985.90133 37.46 990.36133 43 990.36133 L 213 990.36133 C 218.54 990.36133 223 985.90133 223 980.36133 L 223 868.36133 C 223 862.82133 218.54 858.36133 213 858.36133 L 43 858.36133 z "
       inkscape:radius="1"
       sodipodi:type="inkscape:offset" />
    <path
       sodipodi:type="inkscape:offset"
       inkscape:radius="0"
       inkscape:original="M 43 858.36133 C 37.46 858.36133 33 862.82133 33 868.36133 L 33 980.36133 C 33 985.90133 37.46 990.36133 43 990.36133 L 213 990.36133 C 218.54 990.36133 223 985.90133 223 980.36133 L 223 868.36133 C 223 862.82133 218.54 858.36133 213 858.36133 L 43 858.36133 z "
       style="opacity:1;fill:#808080;fill-opacity:1;stroke:none;stroke-width:13;stroke-linecap:round;stroke-linejoin:round;stroke-miterlimit:4;stroke-dasharray:none"
       id="rect4167"
       d="m 43,858.36133 c -5.54,0 -10,4.46 -10,10 v 112 c 0,5.54 4.46,10 10,10 h 170 c 5.54,0 10,-4.46 10,-10 v -112 c 0,-5.54 -4.46,-10 -10,-10 z" />
    <path
       sodipodi:type="inkscape:offset"
       inkscape:radius="-1"
       inkscape:original="M 43 858.36133 C 37.46 858.36133 33 862.82133 33 868.36133 L 33 980.36133 C 33 985.90133 37.46 990.36133 43 990.36133 L 213 990.36133 C 218.54 990.36133 223 985.90133 223 980.36133 L 223 868.36133 C 223 862.82133 218.54 858.36133 213 858.36133 L 43 858.36133 z "
       style="opacity:1;fill:#999999;fill-opacity:1;stroke:none;stroke-width:13;stroke-linecap:round;stroke-linejoin:round;stroke-miterlimit:4;stroke-dasharray:none"
       id="rect4596"
       d="m 43,858.36133 c -5.54,0 -10,4.46 -10,10 v 112 c 0,5.54 4.46,10 10,10 h 170 c 5.54,0 10,-4.46 10,-10 v -112 c 0,-5.54 -4.46,-10 -10,-10 z" />
    <path
       d="m 43,859.36133 c -5.003297,0 -9,3.9967 -9,9 v 112 c 0,5.0033 3.996703,9 9,9 h 170 c 5.0033,0 9,-3.9967 9,-9 v -112 c 0,-5.0033 -3.9967,-9 -9,-9 z"
       id="path4600"
       style="opacity:1;fill:#b3b3b3;fill-opacity:1;stroke:none;stroke-width:13;stroke-linecap:round;stroke-linejoin:round;stroke-miterlimit:4;stroke-dasharray:none"
       inkscape:original="M 43 858.36133 C 37.46 858.36133 33 862.82133 33 868.36133 L 33 980.36133 C 33 985.90133 37.46 990.36133 43 990.36133 L 213 990.36133 C 218.54 990.36133 223 985.90133 223 980.36133 L 223 868.36133 C 223 862.82133 218.54 858.36133 213 858.36133 L 43 858.36133 z "
       inkscape:radius="-2"
       sodipodi:type="inkscape:offset" />
    <path
       sodipodi:type="inkscape:offset"
       inkscape:radius="-3"
       inkscape:original="M 43 858.36133 C 37.46 858.36133 33 862.82133 33 868.36133 L 33 980.36133 C 33 985.90133 37.46 990.36133 43 990.36133 L 213 990.36133 C 218.54 990.36133 223 985.90133 223 980.36133 L 223 868.36133 C 223 862.82133 218.54 858.36133 213 858.36133 L 43 858.36133 z "
       style="opacity:1;fill:#cccccc;fill-opacity:1;stroke:none;stroke-width:13;stroke-linecap:round;stroke-linejoin:round;stroke-miterlimit:4;stroke-dasharray:none"
       id="path4602"
       d="m 43,860.36133 c -4.466594,0 -8,3.5334 -8,8 v 112 c 0,4.46659 3.533406,8 8,8 h 170 c 4.46659,0 8,-3.53341 8,-8 v -112 c 0,-4.4666 -3.53341,-8 -8,-8 z" />
    <path
       d="m 43,861.36133 c -3.929892,0 -7,3.07011 -7,7 v 112 c 0,3.92989 3.070108,7 7,7 h 170 c 3.92989,0 7,-3.07011 7,-7 v -112 c 0,-3.92989 -3.07011,-7 -7,-7 z"
       id="path4604"
       style="opacity:1;fill:#e6e6e6;fill-opacity:1;stroke:none;stroke-width:13;stroke-linecap:round;stroke-linejoin:round;stroke-miterlimit:4;stroke-dasharray:none"
       inkscape:original="M 43 858.36133 C 37.46 858.36133 33 862.82133 33 868.36133 L 33 980.36133 C 33 985.90133 37.46 990.36133 43 990.36133 L 213 990.36133 C 218.54 990.36133 223 985.90133 223 980.36133 L 223 868.36133 C 223 862.82133 218.54 858.36133 213 858.36133 L 43 858.36133 z "
       inkscape:radius="-4"
       sodipodi:type="inkscape:offset" />
    <path
       sodipodi:type="inkscape:offset"
       inkscape:radius="-5"
       inkscape:original="M 43 858.36133 C 37.46 858.36133 33 862.82133 33 868.36133 L 33 980.36133 C 33 985.90133 37.46 990.36133 43 990.36133 L 213 990.36133 C 218.54 990.36133 223 985.90133 223 980.36133 L 223 868.36133 C 223 862.82133 218.54 858.36133 213 858.36133 L 43 858.36133 z "
       style="opacity:1;fill:#ffffff;fill-opacity:1;stroke:none;stroke-width:13;stroke-linecap:round;stroke-linejoin:round;stroke-miterlimit:4;stroke-dasharray:none"
       id="path4606"
       d="m 43,862.36133 c -3.393189,0 -6,2.60681 -6,6 v 112 c 0,3.39319 2.606811,6 6,6 h 170 c 3.39319,0 6,-2.60681 6,-6 v -112 c 0,-3.39319 -2.60681,-6 -6,-6 z" />
  </g>
</svg>
