# Blender v2.79 (sub 0) OBJ File: 'prism.blend'
# www.blender.org
mtllib prism.mtl
o PrismBW_Prism
v -0.869344 -0.500000 0.636396
v -0.829290 -0.418451 0.707107
v -0.918451 -0.418451 0.636396
v -0.869344 -0.500000 -0.636396
v -0.918451 -0.418451 -0.636397
v -0.829289 -0.418451 -0.707107
v 0.869344 -0.500000 -0.636396
v 0.829290 -0.418451 -0.707107
v 0.918451 -0.418451 -0.636396
v 0.869344 -0.500000 0.636397
v 0.918451 -0.418450 0.636397
v 0.829289 -0.418451 0.707107
v -0.050000 0.450000 0.636396
v -0.000000 0.400000 0.707107
v 0.050000 0.450000 0.636396
v -0.050000 0.450000 -0.636396
v 0.050000 0.450000 -0.636396
v 0.000000 0.400000 -0.707107
vt 0.890625 0.855469
vt 0.500000 1.000000
vt 0.109375 0.855469
vt 0.890625 0.144531
vt 0.109375 0.144531
vt 0.500000 0.000000
vt 0.968750 0.144531
vt 1.558594 0.144531
vt 1.558594 0.855469
vt 0.968750 0.855469
vt 0.031250 0.855469
vt -0.558594 0.855469
vt -0.558594 0.144531
vt 0.031250 0.144531
vt 0.078125 0.808594
vt 0.078125 0.191406
vt 0.921875 0.191406
vt 0.921875 0.808594
vt 0.460938 1.023438
vt 0.527344 1.023438
vt 0.472656 -0.027344
vt 0.539062 -0.027344
vt -0.605469 0.855469
vt -0.605469 0.144531
vn -0.0000 0.0000 1.0000
vn 0.0000 -0.0000 -1.0000
vn 0.7071 0.7071 0.0000
vn -0.7071 0.7071 -0.0000
vn 0.0000 -1.0000 0.0000
vn 0.0001 0.0000 1.0000
vn 0.0001 0.0000 -1.0000
vn -0.7071 0.7071 0.0005
vn 0.7071 0.7071 0.0002
vn -0.7071 0.7071 0.0003
vn 0.0001 -1.0000 -0.0000
vn -0.0001 -1.0000 -0.0000
usemtl MaterialBW
s off
f 12/1/1 14/2/1 2/3/1
f 8/4/2 6/5/2 18/6/2
f 9/7/3 17/8/3 15/9/3 11/10/3
f 3/11/4 13/12/4 16/13/4 5/14/4
f 1/15/5 2/3/1 3/11/4
f 4/16/5 5/14/4 6/5/2
f 7/17/5 8/4/2 9/7/3
f 10/18/5 11/10/3 12/1/1
f 13/19/4 14/2/6 15/20/3
f 16/21/4 17/22/3 18/6/7
f 3/11/4 5/14/8 4/16/5 1/15/5
f 2/3/1 14/2/1 13/19/4 3/11/4
f 5/14/4 16/21/4 18/6/2 6/5/2
f 9/7/3 11/10/3 10/18/5 7/17/5
f 8/4/2 18/6/2 17/22/3 9/7/3
f 11/10/3 15/20/3 14/2/1 12/1/1
f 15/23/3 17/24/9 16/13/4 13/12/10
f 1/15/11 10/18/12 12/1/1 2/3/1
f 6/5/2 8/4/2 7/17/12 4/16/11
f 7/17/5 10/18/5 1/15/5 4/16/5
